<?xml version="1.0" encoding="UTF-8"?>
<svg id="Capa_1" data-name="Capa 1" xmlns="http://www.w3.org/2000/svg" xmlns:xlink="http://www.w3.org/1999/xlink" viewBox="0 0 78.57 16.79">
  <defs>
    <style>
      .cls-1 {
        fill: url(#Degradado_sin_nombre_5);
      }

      .cls-1, .cls-2, .cls-3, .cls-4, .cls-5, .cls-6, .cls-7, .cls-8, .cls-9, .cls-10, .cls-11, .cls-12 {
        stroke-width: 0px;
      }

      .cls-2 {
        fill: url(#Degradado_sin_nombre_4);
      }

      .cls-3 {
        fill: url(#Degradado_sin_nombre_3);
      }

      .cls-4 {
        fill: url(#Degradado_sin_nombre_2);
      }

      .cls-5 {
        fill: url(#Degradado_sin_nombre_8);
      }

      .cls-6 {
        fill: url(#Degradado_sin_nombre_9);
      }

      .cls-7 {
        fill: url(#Degradado_sin_nombre_7);
      }

      .cls-8 {
        fill: url(#Degradado_sin_nombre_6);
      }

      .cls-9 {
        fill: url(#Degradado_sin_nombre);
      }

      .cls-10 {
        fill: #fff;
      }

      .cls-11 {
        fill: #f80303;
      }

      .cls-12 {
        fill: #00306b;
      }
    </style>
    <linearGradient id="Degradado_sin_nombre" data-name="Degradado sin nombre" x1="42.05" y1="-389.69" x2="42.05" y2="-383.08" gradientTransform="translate(0 391)" gradientUnits="userSpaceOnUse">
      <stop offset="0" stop-color="#0066ac"/>
      <stop offset="1" stop-color="#005294"/>
    </linearGradient>
    <linearGradient id="Degradado_sin_nombre_2" data-name="Degradado sin nombre 2" x1="36.93" y1="-389.68" x2="36.93" y2="-383.07" gradientTransform="translate(0 391)" gradientUnits="userSpaceOnUse">
      <stop offset="0" stop-color="#dfeff9"/>
      <stop offset=".48" stop-color="#c5d9e2"/>
      <stop offset="1" stop-color="#a5bdc8"/>
    </linearGradient>
    <linearGradient id="Degradado_sin_nombre_3" data-name="Degradado sin nombre 3" x1="16.62" y1="-389.78" x2="16.62" y2="-382.99" gradientTransform="translate(0 391)" gradientUnits="userSpaceOnUse">
      <stop offset="0" stop-color="#dfeff9"/>
      <stop offset=".48" stop-color="#c5d9e2"/>
      <stop offset="1" stop-color="#a5bdc8"/>
    </linearGradient>
    <linearGradient id="Degradado_sin_nombre_4" data-name="Degradado sin nombre 4" x1="30.19" y1="-389.69" x2="30.19" y2="-383.08" gradientTransform="translate(0 391)" gradientUnits="userSpaceOnUse">
      <stop offset="0" stop-color="#dfeff9"/>
      <stop offset=".48" stop-color="#c5d9e2"/>
      <stop offset="1" stop-color="#a5bdc8"/>
    </linearGradient>
    <linearGradient id="Degradado_sin_nombre_5" data-name="Degradado sin nombre 5" x1="23.01" y1="-389.69" x2="23.01" y2="-383.07" gradientTransform="translate(0 391)" gradientUnits="userSpaceOnUse">
      <stop offset="0" stop-color="#dfeff9"/>
      <stop offset=".48" stop-color="#c5d9e2"/>
      <stop offset="1" stop-color="#a5bdc8"/>
    </linearGradient>
    <linearGradient id="Degradado_sin_nombre_6" data-name="Degradado sin nombre 6" x1="27.4" y1="-381.96" x2="27.4" y2="-375.17" gradientTransform="translate(0 391)" gradientUnits="userSpaceOnUse">
      <stop offset="0" stop-color="#dfeff9"/>
      <stop offset=".48" stop-color="#c5d9e2"/>
      <stop offset="1" stop-color="#a5bdc8"/>
    </linearGradient>
    <linearGradient id="Degradado_sin_nombre_7" data-name="Degradado sin nombre 7" x1="33.4" y1="-381.96" x2="33.4" y2="-375.17" gradientTransform="translate(0 391)" gradientUnits="userSpaceOnUse">
      <stop offset="0" stop-color="#dfeff9"/>
      <stop offset=".48" stop-color="#c5d9e2"/>
      <stop offset="1" stop-color="#a5bdc8"/>
    </linearGradient>
    <linearGradient id="Degradado_sin_nombre_8" data-name="Degradado sin nombre 8" x1="16.37" y1="-381.88" x2="16.37" y2="-375.27" gradientTransform="translate(0 391)" gradientUnits="userSpaceOnUse">
      <stop offset="0" stop-color="#dfeff9"/>
      <stop offset=".48" stop-color="#c5d9e2"/>
      <stop offset="1" stop-color="#a5bdc8"/>
    </linearGradient>
    <linearGradient id="Degradado_sin_nombre_9" data-name="Degradado sin nombre 9" x1="21.31" y1="-381.87" x2="21.31" y2="-375.27" gradientTransform="translate(0 391)" gradientUnits="userSpaceOnUse">
      <stop offset="0" stop-color="#dfeff9"/>
      <stop offset=".48" stop-color="#c5d9e2"/>
      <stop offset="1" stop-color="#a5bdc8"/>
    </linearGradient>
  </defs>
  <path class="cls-9" d="m44,4.5l-3.89-3.18s0,0,0,0c0,0-.01,0-.01.01v1.71s0,.02.01.03l1.76,1.44h0s0,.02,0,.02l-.59.52-1.17,1.02s-.02.02-.02.03v1.82s0,0,0,0c0,0,.01,0,.02,0l3.16-2.75.73-.64s.01-.02,0-.03Z"/>
  <g>
    <path class="cls-10" d="m2.78,14.79c-1.15-.21-2.43-.8-2.73-2.06-.03-.14-.05-.33-.05-.59V1.91s0-.02.02-.02h.36s.03,0,.04.01c1.13.77,2.32.87,3.58.3.96-.44,1.67-1.17,2.11-2.19,0-.01.01-.01.02,0,.5,1.13,1.31,1.9,2.41,2.32,1.15.43,2.25.29,3.28-.42.02,0,.03-.02.05-.02h.36s.02,0,.02.02v10.14c0,.32-.02.56-.06.71-.18.72-.72,1.27-1.37,1.59-.48.24-.98.39-1.48.47-.79.12-1.48.27-2.11.69-.46.31-.81.79-1.09,1.27,0,.02-.02.02-.03,0-.24-.41-.54-.85-.92-1.14-.52-.41-1.17-.64-1.82-.75-.18-.03-.38-.06-.58-.1Zm.8-.23c1.02.19,1.95.67,2.52,1.55,0,0,.01,0,.02,0h0c.63-.96,1.65-1.43,2.78-1.6.24-.03.48-.08.7-.13,1.07-.24,2.27-.87,2.27-2.13V2.31s0,0,0,0h0c-.58.38-1.21.59-1.89.62-.27.01-.53,0-.78-.05-1.26-.23-2.39-.96-3.06-2.05,0,0-.02-.01-.02,0,0,0,0,0,0,0-.68,1.17-2.12,2.01-3.46,2.1-.63.04-1.25-.09-1.86-.38-.08-.04-.21-.12-.39-.23-.02,0-.02,0-.02.01,0,3.28,0,6.58,0,9.89,0,.16.01.29.03.4.1.52.47.95.91,1.24.5.33,1.11.51,1.71.61.2.03.39.06.57.1Z"/>
    <path class="cls-10" d="m77.64,8.4l.92.92s0,0,0,.02v7.23s0,.02-.02.02h-16.35s-.02,0-.02-.02h0v-7.23s0-.01,0-.02l.92-.92s0-.02,0-.03h0l-.92-.92s0,0,0-.02V.21s0-.02.02-.02h16.35s.02,0,.02.02h0v7.23s0,.01,0,.02l-.92.92s0,.02,0,.03h0Zm-13.32-.34c.17.17.21.44.03.62-.37.37-.74.74-1.13,1.13-.01.01-.02.03-.02.04v5.68s0,.02.02.02h14.28s.02,0,.02-.02v-5.69s0-.02-.01-.03c-.37-.37-.74-.74-1.1-1.1-.2-.2-.19-.47,0-.66.38-.37.74-.74,1.1-1.09,0,0,.02-.02.02-.03V1.25s0-.02-.02-.02h-14.29s-.02,0-.02.02v5.67s0,.03.02.04c.37.37.73.73,1.1,1.1Z"/>
    <path class="cls-12" d="m6.11,16.12c-.58-.88-1.5-1.36-2.52-1.55-.18-.03-.37-.07-.57-.1-.6-.1-1.2-.28-1.71-.61-.45-.29-.81-.72-.91-1.24-.02-.11-.03-.24-.03-.4,0-3.31,0-6.61,0-9.89,0-.02,0-.02.02-.01.18.11.31.19.39.23.61.29,1.22.42,1.86.38,1.35-.09,2.79-.92,3.46-2.1,0,0,.02-.01.02,0,0,0,0,0,0,0,.67,1.09,1.8,1.81,3.06,2.05.25.05.51.06.78.05.68-.03,1.31-.24,1.89-.62,0,0,0,0,.01,0h0v9.95c0,1.26-1.19,1.89-2.27,2.13-.22.05-.45.09-.7.13-1.13.17-2.15.64-2.78,1.6,0,0-.01,0-.02,0t0,0Zm.78-12.65s-.02,0-.02,0c-.16-.13-.35-.23-.56-.29-.02,0-.02-.02,0-.03l.13-.08s.02,0,.04,0l.14.05s.03,0,.03,0c.2-.15.41-.27.63-.37.07-.03.06-.05,0-.05-1.11-.03-2.17.59-2.55,1.66-.2.57-.18,1.2-.02,1.79.02.08.05.16.09.23.02.03.03.03.03,0,.07-.56.23-1.13.49-1.69,0-.02,0-.03-.02-.03l-.17-.05s-.02-.01-.01-.02l.06-.12s.02-.02.04-.02c.24.05.45.15.63.29,0,0,.01.02,0,.03l-.07.12s-.02.01-.02,0l-.18-.12s-.03,0-.04,0h0c-.29.52-.5,1.06-.63,1.61-.02.06,0,.09.07.08,1.25-.13,2.41-.79,2.65-2.11.09-.51.05-1.08-.17-1.56-.02-.03-.05-.05-.09-.03,0,0,0,0,0,0-.19.12-.37.26-.54.43,0,0,0,.02,0,.03h0s.17.12.17.12c0,0,0,.01,0,.02h0s-.12.1-.12.1Zm-5.1.39s0,0-.01,0l-.17-.51s0,0-.02,0c0,0,0,0,0,0l-.17.51s0,0-.01,0h-.53s-.01,0-.01.02c0,0,0,0,0,.01l.43.32s0,0,0,.01l-.16.51s0,.01,0,.02h.01l.44-.31s.01,0,.02,0l.44.31s.01,0,.02,0c0,0,0,0,0-.01l-.16-.51s0-.01,0-.01l.43-.32s0-.01,0-.02c0,0,0,0-.01,0h-.54Zm1.99,0s0,0-.01,0l-.17-.51s0,0-.02,0c0,0,0,0,0,0l-.17.51s0,0-.01,0h-.54s-.01,0-.01.02c0,0,0,0,0,0l.43.32s0,0,0,.01l-.16.51s0,.01,0,.02h.01l.44-.31s.01,0,.02,0l.44.31s.01,0,.02,0c0,0,0,0,0-.01l-.16-.51s0-.01,0-.01l.43-.32s0-.01,0-.02,0,0,0,0h-.53Zm5.06,0s-.01,0-.01,0l-.17-.51s-.01-.01-.02,0c0,0,0,0,0,0l-.17.51s0,0-.01,0h-.53s-.01,0-.01.02c0,0,0,0,0,.01l.43.32s0,0,0,.02l-.16.51s0,.02,0,.02h.01l.43-.31s.01,0,.02,0l.43.31s.02,0,.02,0c0,0,0,0,0-.01l-.16-.51s0-.01,0-.02l.43-.32s0-.01,0-.02c0,0,0,0-.01,0h-.52Zm1.99,0s-.01,0-.01,0l-.17-.51s0-.01-.02,0c0,0,0,0,0,0l-.17.51s0,0-.01,0h-.53s-.01,0-.01.02c0,0,0,0,0,.01l.43.32s0,0,0,.01l-.16.51s0,.01,0,.02h.01l.44-.31s.01,0,.02,0l.44.31s.01,0,.02,0c0,0,0,0,0-.01l-.16-.51s0-.01,0-.02l.43-.31s0-.01,0-.02,0,0-.01,0h-.53ZM1.79,5.65s-.01,0-.01,0l-.17-.51s-.01-.01-.02,0c0,0,0,0,0,0l-.17.51s0,0-.01,0h-.53s-.01.01-.01.02,0,0,0,0l.43.31s0,0,0,.02l-.16.51s0,.02,0,.02h.01l.43-.31s.01,0,.02,0l.44.31s.02,0,.02,0c0,0,0,0,0-.01l-.16-.51s0-.01,0-.02l.43-.31s0-.01,0-.02c0,0,0,0,0,0h-.53Zm1.99,0s-.01,0-.01,0l-.17-.51s0-.01-.02,0c0,0,0,0,0,0l-.17.51s0,0-.01,0h-.54s-.01.01-.01.02,0,0,0,0l.43.32s0,0,0,.01l-.16.51s0,.01,0,.02h.01l.44-.31s.01,0,.02,0l.44.31s.01,0,.02,0c0,0,0,0,0-.01l-.16-.51s0-.01,0-.01l.43-.32s0-.01,0-.02t0,0h-.53Zm5.06,0s-.01,0-.01,0l-.17-.51s0-.01-.02,0c0,0,0,0,0,0l-.17.51s0,0-.01,0h-.53s-.01,0-.01.02c0,0,0,0,0,.01l.43.32s0,0,0,.02l-.16.51s0,.01,0,.02h.01l.44-.31s.01,0,.02,0l.44.31s.01,0,.02,0c0,0,0,0,0-.01l-.16-.51s0-.01,0-.02l.43-.32s0-.01,0-.02,0,0-.01,0h-.53Zm1.99,0s-.01,0-.01,0l-.17-.51s0-.01-.02,0c0,0,0,0,0,0l-.17.51s0,0-.01,0h-.53s-.01.01-.01.02,0,0,0,0l.43.32s0,0,0,.02l-.16.51s0,.01,0,.02h.01l.44-.31s.01,0,.02,0l.44.31s.01,0,.02,0c0,0,0,0,0-.01l-.16-.51s0-.01,0-.02l.43-.32s0-.01,0-.02t0,0h-.53ZM3.64,13.88c.91.18,1.8.55,2.47,1.2.01.01.02.01.03,0,.6-.61,1.5-.99,2.34-1.17.3-.06.59-.12.87-.17.4-.07.78-.21,1.15-.42.3-.17.67-.53.69-.89,0-.05,0-.09,0-.14,0-1.74,0-3.47,0-5.21,0-.02,0-.02-.02-.02H1.06s-.02,0-.02.02v5.12c0,.14.02.27.05.37.23.75,1.29,1.09,1.99,1.21.29.05.48.08.57.1Z"/>
    <path class="cls-10" d="m7,3.34l-.17-.12s-.01-.02,0-.03c0,0,0,0,0,0,.17-.17.35-.31.54-.43.03-.02.07-.01.09.02,0,0,0,0,0,0,.22.48.26,1.05.17,1.56-.24,1.33-1.4,1.99-2.65,2.11-.06,0-.08-.02-.07-.08.13-.56.34-1.1.63-1.61,0-.01.02-.02.03-.01h0l.18.12s.02,0,.02,0l.07-.12s0-.02,0-.03c-.18-.14-.39-.24-.63-.29-.02,0-.03,0-.04.02l-.06.12s0,.02.01.02l.17.05s.02.02.02.03c-.26.56-.42,1.13-.49,1.69,0,.04-.02.04-.03,0-.03-.07-.07-.15-.09-.23-.17-.59-.18-1.22.02-1.79.37-1.07,1.44-1.69,2.55-1.66.07,0,.08.02,0,.05-.22.1-.43.23-.63.37-.01,0-.02.01-.03,0l-.14-.05s-.03,0-.04,0l-.13.08s-.02.02,0,.03c.21.06.4.16.56.29,0,0,.02,0,.02,0l.11-.11s0,0,0,0h0Zm-.33.3c-.18-.14-.38-.24-.6-.3,0,0-.01,0-.02,0-.05.04-.1.09-.15.13h0c.24.06.45.16.64.31.01.01.03,0,.03,0l.1-.11s.01-.02,0-.03Zm-1.07.19c.24.05.47.16.66.32,0,0,.01,0,.02,0l.11-.14s0-.01,0-.02c-.19-.16-.41-.26-.65-.31-.02,0-.03,0-.04.01l-.09.12s0,.02,0,.02c0,0,0,0,0,0Zm-.26.38c.24.05.45.15.65.3.01,0,.02,0,.03,0l.09-.13s0-.02,0-.03c-.19-.15-.4-.26-.65-.31-.02,0-.03,0-.03.02l-.08.13s0,.02,0,.03c0,0,0,0,0,0Z"/>
    <path class="cls-10" d="m69.58,6.68c-.19.5-.51.81-.98.95-.16.05-.37.07-.63.06-.48,0-.96,0-1.45,0-.05,0-.1,0-.16-.03-.06-.02-.09-.07-.09-.15,0-.44,0-.87,0-1.29,0-1.05,0-2.03,0-2.95,0-.14.02-.26.18-.26.48,0,1.01,0,1.59,0,.52,0,1.02.19,1.34.63.22.3.33.64.33,1.02v1.38c0,.23-.04.45-.12.66Zm-1-.59c.02-.4.02-.84,0-1.32,0-.39-.11-.8-.57-.84-.18-.02-.39-.02-.64-.01-.01,0-.02,0-.02.02v2.79s0,.02.02.02c.31,0,.53,0,.64,0,.38-.02.54-.31.56-.66Z"/>
    <path class="cls-10" d="m73.56,6.71h-1.52s-.03,0-.03.02c-.09.3-.17.58-.25.82-.03.08-.1.14-.18.14h-.69c-.15,0-.19-.13-.15-.26.48-1.45.96-2.87,1.43-4.27.04-.13.13-.17.26-.17.28,0,.55,0,.83,0,.12,0,.2.06.23.17.47,1.43.93,2.83,1.39,4.2.03.1.08.23-.03.3-.03.02-.06.02-.1.02-.24,0-.48,0-.71,0-.1,0-.19-.07-.22-.17-.08-.26-.16-.52-.24-.78,0-.02-.02-.03-.03-.03Zm-.24-.87l-.52-1.7s-.01-.02-.02,0l-.51,1.7s0,.02.02.02h1.01s.02,0,.02-.02h0Z"/>
    <path class="cls-10" d="m1.79,3.86h.54s.01,0,.01.02c0,0,0,0,0,.01l-.43.32s0,0,0,.01l.16.51s0,.01,0,.02h-.01l-.44-.31s-.01,0-.02,0l-.44.31s-.01,0-.02,0c0,0,0,0,0-.01l.16-.51s0-.01,0-.01l-.43-.32s0-.01,0-.02,0,0,.01,0h.53s0,0,.01-.01l.17-.51s0,0,.02,0c0,0,0,0,0,0l.17.51s0,0,.01,0Z"/>
    <path class="cls-10" d="m3.78,3.86h.54s.01,0,.01.02c0,0,0,0,0,0l-.43.32s0,0,0,.01l.16.51s0,.01,0,.02h-.01l-.44-.31s-.01,0-.02,0l-.44.31s-.01,0-.02,0c0,0,0,0,0-.01l.16-.51s0-.01,0-.01l-.43-.32s0-.01,0-.02,0,0,0,0h.54s0,0,.01-.01l.17-.51s0,0,.02,0c0,0,0,0,0,0l.17.51s0,0,0,0Z"/>
    <path class="cls-10" d="m8.85,3.86h.53s.01,0,.01.02c0,0,0,0,0,.01l-.43.32s0,0,0,.02l.16.51s0,.02,0,.02h-.01l-.43-.31s-.01,0-.02,0l-.43.31s-.02,0-.02,0c0,0,0,0,0-.01l.16-.51s0-.01,0-.02l-.43-.32s0-.01,0-.02c0,0,0,0,.01,0h.53s.01,0,.01-.01l.17-.51s.01-.01.02,0c0,0,0,0,0,0l.17.51s0,0,0,0Z"/>
    <path class="cls-10" d="m10.84,3.86h.53s.01.01.01.02c0,0,0,0,0,.01l-.43.31s0,0,0,.02l.16.51s0,.01,0,.02h-.01l-.44-.31s-.01,0-.02,0l-.44.31s-.01,0-.02,0c0,0,0,0,0-.01l.16-.51s0-.01,0-.01l-.43-.32s0-.01,0-.02c0,0,0,0,.01,0h.53s.01,0,.01-.01l.17-.51s0-.01.02,0c0,0,0,0,0,0l.17.51s0,0,.01,0Z"/>
    <path class="cls-12" d="m6.07,3.34c.22.06.42.16.6.3.01.01.01.02,0,.03l-.1.11s-.02.02-.03,0c-.19-.15-.4-.25-.64-.31h0c.05-.05.1-.09.15-.14,0,0,0,0,.02,0Z"/>
    <path class="cls-12" d="m6.25,4.15c-.19-.16-.42-.27-.66-.32,0,0-.01,0-.01-.02t0,0l.09-.12s.02-.02.04-.01c.24.06.46.16.65.31,0,0,0,.01,0,.02l-.11.14s-.01,0-.02,0Z"/>
    <path class="cls-12" d="m5.34,4.21s-.02-.01-.02-.02t0,0l.08-.13s.02-.02.03-.02c.24.05.46.16.65.31.01,0,.01.02,0,.03l-.09.13s-.02.01-.03,0c-.19-.15-.4-.25-.64-.3Z"/>
    <path class="cls-10" d="m48.97,7.02v-.38s0-.03-.01-.04c-.1-.14-.24-.24-.42-.29-.35-.09-.7-.16-1.03-.33-.12-.07-.35-.25-.35-.41,0-.18,0-.37,0-.54,0-.02,0-.03.01-.05.21-.34.52-.53.93-.58.51-.06.99.09,1.3.53.03.04.04.09.04.14,0,.12,0,.24,0,.35,0,.02,0,.02-.02.02h-.42s-.02,0-.02-.02h0v-.26s0-.05-.02-.07c-.13-.18-.3-.29-.53-.32-.33-.04-.59.07-.79.32,0,.01-.01.02-.01.04,0,.09,0,.17,0,.27,0,.19.29.31.43.35.2.05.41.11.62.17.3.09.58.23.74.49,0,.01.01.03.01.04v.64s-.01.09-.04.13c-.36.53-1.01.66-1.59.47-.24-.08-.44-.24-.61-.47-.03-.04-.04-.09-.04-.13,0-.14,0-.26,0-.39,0-.01,0-.02.02-.02h.43s.02,0,.02.02v.32s0,.03.01.04c.31.45,1.02.46,1.33,0,.02-.01.02-.02.02-.04Z"/>
    <path class="cls-10" d="m50.33,5.01c.33-.56.96-.73,1.57-.56.31.09.55.27.72.57.03.05.04.1.04.16v1.88s0,.03-.01.05c-.28.56-.86.77-1.45.67-.39-.07-.68-.27-.87-.61-.03-.05-.04-.1-.04-.15v-1.85c0-.05.01-.1.04-.15Zm1.26-.24c-.32-.03-.61.07-.79.35-.03.04-.04.09-.04.14v1.66c0,.05.02.1.05.15.32.47,1.02.46,1.33-.01.03-.04.04-.09.04-.13v-1.67c0-.05-.02-.1-.04-.14-.13-.21-.32-.32-.55-.35Z"/>
    <path class="cls-10" d="m56.78,4.44c.6-.15,1.22.03,1.54.58.03.04.04.09.04.14v1.85c0,.05-.01.1-.03.14-.19.33-.46.53-.82.6-.31.07-.61.04-.9-.07-.24-.09-.43-.27-.58-.52-.03-.05-.04-.1-.04-.15v-1.85c0-.05.01-.1.04-.15.17-.31.43-.5.76-.58Zm.52.34c-.31-.04-.61.06-.79.33-.03.05-.05.11-.05.17,0,.55,0,1.1,0,1.64,0,.05.01.09.04.13.21.32.59.43.95.31.16-.05.43-.24.43-.44v-1.66c0-.05-.01-.1-.04-.14-.13-.2-.31-.32-.54-.35Z"/>
    <path class="cls-10" d="m54.11,7.34h1.18s.01,0,.01.01h0v.35s0,.01-.01.01h-1.66s-.01,0-.01-.01h0v-3.25s0-.01.01-.01h.45s.01,0,.01.01h0v2.87s0,.01.01.01h0Z"/>
    <path class="cls-10" d="m1.79,5.65h.53s.01.01.01.02,0,0,0,0l-.43.31s0,0,0,.02l.16.51s0,.02,0,.02h-.01l-.44-.31s-.01,0-.02,0l-.43.31s-.02,0-.02,0c0,0,0,0,0-.01l.16-.51s0-.01,0-.02l-.43-.31s0-.01,0-.02c0,0,0,0,0,0h.53s.01,0,.01-.01l.17-.51s.01-.01.02,0c0,0,0,0,0,0l.17.51s0,.01.01.01Z"/>
    <path class="cls-10" d="m3.78,5.65h.54s.01.01.01.02,0,0,0,0l-.43.32s0,0,0,.01l.16.51s0,.01,0,.02h-.01l-.44-.31s-.01,0-.02,0l-.44.31s-.01,0-.02,0c0,0,0,0,0-.01l.16-.51s0-.01,0-.01l-.43-.32s0-.01,0-.02t0,0h.54s.01,0,.01-.01l.17-.51s0-.01.02,0c0,0,0,0,0,0l.17.51s0,0,0,0Z"/>
    <path class="cls-10" d="m8.85,5.65h.53s.01,0,.01.02c0,0,0,0,0,.01l-.43.32s0,0,0,.02l.16.51s0,.01,0,.02h-.01l-.44-.31s-.01,0-.02,0l-.44.31s-.01,0-.02,0c0,0,0,0,0-.01l.16-.51s0-.01,0-.02l-.43-.32s0-.01,0-.02,0,0,.01,0h.53s.01,0,.01-.01l.17-.51s0-.01.02,0c0,0,0,0,0,0l.17.51s0,0,0,0Z"/>
    <path class="cls-10" d="m10.84,5.65h.53s.01.01.01.02,0,0,0,0l-.43.32s0,0,0,.02l.16.51s0,.01,0,.02h-.01l-.44-.31s-.01,0-.02,0l-.44.31s-.01,0-.02,0c0,0,0,0,0-.01l.16-.51s0-.01,0-.02l-.43-.32s0-.01,0-.02,0,0,0,0h.53s.01,0,.01-.01l.17-.51s0-.01.02,0c0,0,0,0,0,0l.17.51s0,0,.01,0Z"/>
    <path class="cls-4" d="m36.11,2.61h3.16s.02,0,.02-.02v-1.25s0-.02-.02-.02h-4.69s-.02,0-.02.02v6.57s0,.02.02.02h4.7s0,0,0,0v-1.27s0-.02-.02-.02h-3.16s-.02,0-.02-.02v-1.35s0-.02.02-.02h2.65s.02,0,.02-.02v-1.23s0-.02-.02-.02h-2.64s-.03-.01-.03-.03v-1.31s0-.02.02-.02Z"/>
    <path class="cls-3" d="m19.39,4.22s0-.02-.02-.02h-2.53s-.02,0-.02.02v1.15s0,.02.02.02h1.1s.02,0,.02.02v.87s0,.03-.02.04c-.45.25-.97.33-1.5.3-.43-.02-.8-.16-.97-.58-.05-.19-.09-.37-.09-.56v-1.59c0-.15,0-.3.02-.45.07-.57.48-.8,1.01-.84.84-.07,1.61.09,2.33.49.02,0,.03,0,.03-.01l.56-1.24s0-.02-.01-.03c-.57-.32-1.15-.51-1.73-.57-.24-.02-.51-.03-.8-.03-.84,0-1.91.09-2.49.8-.14.17-.23.33-.29.5-.14.4-.2.85-.17,1.35,0,.79,0,1.42,0,1.87,0,.09.01.19.03.33.03.37.14.7.31.99.37.61,1.09.88,1.8.93.22.01.44.02.65,0,.45-.02,1.05-.17,1.42-.49.02-.02.02-.01.02.01v.35s.01.04.04.04h1.23s.02,0,.02-.02v-3.68Z"/>
    <path class="cls-2" d="m33.71,1.34s0-.02-.02-.02h-2.46s-.02,0-.02.02l-.61,2.11-.47,1.61s0,.01-.01,0l-.41-1.4-.68-2.33s-.01-.02-.02-.02h-2.3s-.02,0-.02.02v6.57s0,.02.02.02h1.47s.02,0,.02-.02l-.03-1.89-.05-2.73v-.22s0-.03.02,0l.2.66.71,2.32.38,1.24s.02.02.03.02h1.37s.02,0,.03-.02l.36-1.17.81-2.66.11-.37c.02-.06.03-.05.02,0v.4s-.05,2.51-.05,2.51l-.03,1.9s0,.02.02.02h1.6s.02,0,.02-.02V1.34Zm-5.62,2.09h0s0,0,0,0Zm0,0s0,0,0,0c0,0,0,0,0,0Zm-.02.02s0,0,0,0c0,0,0,0,0,0Zm.02,0h0Zm.28.24h0Zm0,0h0Zm0,0h0Zm0,0h0s0,0,0,0h0Z"/>
    <path class="cls-1" d="m26.13,7.9l-.59-1.82-.79-2.4-.77-2.35s-.02-.02-.03-.02h-1.86s-.03,0-.03.02l-.69,2.11-.87,2.66-.59,1.8h0s0,.02.01.02h1.63s.01,0,.02-.01l.34-1.15s.01-.02.02-.02h2.18s.02,0,.02.02l.34,1.15s.01.02.03.02h1.62s.02-.02.01-.03Zm-3.12-4.92s0-.02.01,0l.21.7.5,1.71s0,.02-.02.02h-1.4s-.02,0-.02-.02l.57-1.94.15-.47Z"/>
    <path class="cls-10" d="m6.11,15.08c-.67-.65-1.56-1.01-2.47-1.2-.1-.02-.29-.05-.57-.1-.7-.12-1.75-.46-1.99-1.21-.03-.1-.05-.22-.05-.37,0-1.73,0-3.43,0-5.12,0-.02,0-.02.02-.02h10.11s.02,0,.02.02v5.21s0,.09,0,.14c-.02.37-.39.72-.69.89-.37.21-.75.35-1.15.42-.29.05-.58.11-.87.17-.84.17-1.73.56-2.34,1.17,0,.02-.02.02-.03,0Zm-2.36-4.27s0,.04-.02,0l-1.04-3.2s-.02-.03-.04-.03h-1.12s-.02,0-.02.02v.61s0,.02.02.03l.32.16s.02.02.02.03v3.54s0,.02-.02.03l-.31.12s-.02.02-.02.03v.53s0,.02.02.03l1.49.38s.02,0,.02-.02v-.62s0-.04-.03-.05l-.3-.23s-.03-.03-.03-.05v-2.04s0,0,0,0h.01s.01,0,.01,0c0,.03.01.06.02.09.34.99.68,2.02,1.04,3.07,0,.02.02.03.04.03l.72.21s.03,0,.03-.02v-5.02s.01-.05.03-.06l.24-.14s.02-.02.02-.02v-.63s0-.02-.02-.02h-1.39s-.02,0-.02.02v.61s0,.02.02.03l.28.16s.02.02.02.03v2.38Zm2.65-.93s-.02,0-.02-.02v-1.48s0-.02.02-.02h.63s.01,0,.02.01l.17.51s0,.01.02.01h.57s.02,0,.02-.02v-1.29s0-.02-.02-.02h-2.61s-.02,0-.02.02v.64s0,.01,0,.02l.31.15s0,0,0,.01v4.51s0,.01,0,.02l-.31.12s0,0,0,.02v.54s0,.01,0,.02l1.5.56s.02,0,.02,0h0v-.63s0,0,0,0l-.3-.36s0,0,0,0v-2.48s0-.02.02-.02h.49s.01,0,.01,0l.17.26s0,0,.01,0h.38s.02,0,.02-.02h0v-1.33s0-.02-.02-.02h-.39s-.01,0-.01,0l-.18.27s0,0-.01,0h-.48s0-.01,0-.01Zm2.95,2.32s-.02,0-.02-.01h0v-3.76s0-.01.01-.02l.28-.15s.01,0,.01-.02v-.63s0-.02-.02-.02h-1.5s-.02,0-.02.02h0v.63s0,.02.01.02l.31.16s.01.01.01.02v4.01s0,.01,0,.02l-.37.3s0,0,0,.02v.63s0,.02.02.02h0l2.64-.7s.02-.01.02-.02v-1.64s0-.02-.02-.02h-.59s-.02,0-.02.02l-.12.96s0,.02-.02.02l-.61.16Z"/>
    <path class="cls-11" d="m3.75,10.81v-2.37s0-.02-.02-.03l-.28-.16s-.02-.02-.02-.03v-.61s0-.02.02-.02h1.39s.02,0,.02.02v.63s0,.02-.02.02l-.24.14s-.03.03-.03.06v5.02s0,.03-.03.02l-.72-.21s-.03-.02-.04-.03c-.35-1.05-.7-2.07-1.04-3.07-.01-.03-.02-.06-.02-.09,0,0,0,0-.01,0h-.01s0,0,0,0v2.04s0,.04.03.05l.3.23s.03.03.03.05v.62s0,.02-.02.02l-1.5-.39s-.02-.01-.02-.03v-.53s0-.02.02-.03l.31-.12s.02-.02.02-.03v-3.54s0-.02-.02-.03l-.32-.16s-.02-.02-.02-.03v-.61s0-.02.02-.02h1.12s.03,0,.04.03l1.04,3.2s.02.04.02,0Z"/>
    <path class="cls-11" d="m6.4,9.88h.47s.01,0,.01,0l.18-.27s0,0,.01,0h.39s.02,0,.02.02v1.33s0,.02-.02.02h-.38s-.01,0-.01,0l-.17-.26s0,0-.01,0h-.49s-.02,0-.02.02v2.48s0,0,0,0l.3.36s0,0,0,0v.63s0,.02-.02.02h0l-1.5-.56s0,0,0-.02v-.54s0-.01,0-.02l.31-.12s0,0,0-.02v-4.51s0-.01,0-.01l-.31-.15s0,0,0-.02v-.64s0-.02.02-.02h2.61s.02,0,.02.02v1.29s0,.02-.02.02h-.57s-.01,0-.02-.01l-.17-.51s0-.01-.02-.01h-.63s-.02,0-.02.02v1.48s.02.02.02.02Z"/>
    <path class="cls-11" d="m9.35,12.19l.61-.16s.01,0,.02-.02l.12-.96s0-.02.02-.02h.59s.02,0,.02.02v1.64s0,.02-.02.02l-2.64.7s-.02,0-.02-.01h0v-.63s0-.01,0-.02l.37-.3s0,0,0-.02v-4.02s0-.02-.01-.02l-.31-.16s-.01-.01-.01-.02v-.63s0-.02.02-.02h1.5s.02,0,.02.02h0v.63s0,.01-.01.02l-.28.15s-.01,0-.01.02v3.75s0,.02.02.02t0,0Z"/>
    <path class="cls-10" d="m50.61,10.74v1.09s0,.01.01.01h1.47s.01,0,.01.01v.35s0,.01-.01.01h-1.95s-.01,0-.01-.01v-3.25s0-.01.01-.01h1.91s.01,0,.01.01v.35s0,.01-.01.01h-1.43s-.01,0-.01.01h0v.99s0,.01.01.01h1.33s.01,0,.01.01v.35s0,.01-.01.01h-1.33s-.01.02-.01.02Z"/>
    <path class="cls-10" d="m54.97,11.48v-2.5s0-.02.02-.02h.41s.02,0,.02.02v3.24s0,.02-.02.02h-.56s-.03,0-.03-.02c-.43-.84-.86-1.67-1.28-2.5-.01-.03-.03-.03-.06-.02-.01,0-.02.02-.02.03v2.49s0,.02-.02.02h-.41s-.02,0-.02-.02v-3.24s0-.02.02-.02h.55s.02,0,.03.02c.44.85.86,1.68,1.28,2.5.01.02.03.03.06.02.02,0,.02-.02.02-.03Z"/>
    <path class="cls-10" d="m68.23,10.07h-1.74c-.13,0-.2-.07-.2-.19,0-.17,0-.35,0-.54,0-.11.02-.24.17-.24h2.98c.13,0,.2.07.2.21,0,.17,0,.35,0,.55,0,.07-.02.14-.06.2-.65.91-1.29,1.82-1.95,2.74,0,0,0,.01,0,.02,0,0,0,0,0,0h1.87c.12,0,.19.07.19.2,0,.28,0,.5,0,.64,0,.09-.06.14-.16.14-1.03,0-2.05,0-3.08,0-.14,0-.18-.1-.19-.23,0-.18,0-.35,0-.52,0-.09.02-.15.07-.22.65-.92,1.28-1.83,1.91-2.72,0-.01,0-.02-.02-.02Z"/>
    <path class="cls-10" d="m72.11,11.11s0,0-.02,0c0,0,0,0,0,0,0,.82,0,1.63,0,2.42,0,.11-.02.24-.17.24-.21,0-.42,0-.65,0-.14,0-.21-.07-.21-.21v-4.28c0-.14.07-.21.2-.21h.6c.12,0,.22.06.28.18.42.8.86,1.64,1.31,2.5.01.03.02.02.02,0v-2.5c0-.14.11-.18.23-.18.24,0,.44,0,.58,0,.13,0,.19.07.19.19v4.32c0,.1-.08.18-.17.18-.21,0-.43,0-.64,0-.19,0-.26-.15-.34-.3-.4-.8-.82-1.59-1.23-2.37Z"/>
    <path class="cls-8" d="m30.18,13.65c0-.31-.05-.59-.16-.83-.21-.45-.64-.72-1.12-.86-.35-.1-.72-.18-1.12-.23-.1-.02-.31-.05-.62-.1-.19-.03-.35-.09-.49-.17-.14-.12-.17-.31-.15-.49.04-.45.61-.5.95-.51.74-.02,1.41.14,2.03.48h0s.03,0,.03-.02l.56-1.25s0-.03-.01-.03c-.68-.38-1.42-.6-2.19-.6h-.59c-.65,0-1.41.19-1.88.65-.2.2-.34.42-.41.66-.11.35-.13.74-.07,1.15.06.54.33.93.82,1.16.65.3,1.38.35,2.07.47.12.02.25.06.4.12.22.08.34.24.35.47.06.44-.24.63-.63.68-.94.11-1.92-.04-2.76-.5-.01,0-.02,0-.03,0l-.54,1.24s0,.05.02.06c.63.35,1.3.55,1.99.61.42.03.87.03,1.35,0,.36-.03.7-.1,1.01-.21.87-.32,1.24-1.05,1.19-1.94Z"/>
    <path class="cls-7" d="m36.18,13.71c.01-.3-.03-.57-.12-.8-.29-.71-1.04-.95-1.75-1.08-.29-.05-.51-.09-.67-.11-.23-.03-.45-.07-.67-.12-.35-.09-.48-.26-.45-.63.03-.4.51-.49.86-.5.77-.03,1.48.13,2.11.48.02,0,.03,0,.03-.01l.56-1.25s0-.02,0-.03c-.68-.39-1.41-.59-2.18-.61-.21,0-.4,0-.6,0-.47,0-.9.09-1.29.26-.69.3-1.05.85-1.09,1.59-.02.3,0,.61.09.9.09.33.29.58.59.76.24.14.51.24.78.31.53.12,1.17.2,1.59.29.31.07.59.19.62.55,0,.1,0,.17,0,.21-.05.34-.35.45-.65.48-.96.1-1.9-.04-2.75-.5h0s-.02,0-.02,0l-.55,1.26s0,.03.01.03c.66.37,1.36.58,2.11.63.32.02.66.02,1.03,0,.55-.02,1.17-.13,1.61-.42.61-.38.84-.99.8-1.7Z"/>
    <path class="cls-5" d="m18.83,10.75c-.09-.58-.36-1.08-.89-1.36-.32-.17-.69-.26-1.11-.26-.78,0-1.76,0-2.95,0,0,0,0,0,0,0v6.58s0,.02.02.02h1.5s.02,0,.02-.02v-2.09s0-.02.02-.02h1.16c.44,0,.84-.04,1.21-.2.77-.32,1.06-1.08,1.07-1.87.02-.24,0-.51-.04-.78Zm-2.32,1.57h-1.08s-.02,0-.02-.02v-1.85s0-.02.02-.02c.39,0,.75,0,1.1,0,.41,0,.65.19.72.57.03.18.04.37.02.58-.04.48-.27.74-.77.74Z"/>
    <path class="cls-6" d="m23.78,13.73l-.63-1.92-.87-2.66s-.02-.02-.03-.02h-1.85s-.02,0-.03.02l-.87,2.64-.65,1.98-.64,1.95s0,.02.02.02h1.62s.02,0,.02-.02l.34-1.15s.02-.02.03-.02h2.18s.02,0,.03.02l.33,1.15s.01.02.03.02h1.64s0,0,0-.01l-.65-1.99Zm-2.48-2.92s.02-.04.03,0l.28.97.42,1.43h0s0,.02-.02.02h-1.4s-.02,0-.02-.02l.41-1.41.29-.98Z"/>
  </g>
</svg>