<svg id="Grupo_23" data-name="Grupo 23" xmlns="http://www.w3.org/2000/svg" xmlns:xlink="http://www.w3.org/1999/xlink" width="268.748" height="57.436" viewBox="0 0 268.748 57.436">
  <defs>
    <clipPath id="clip-path">
      <path id="Trazado_1" data-name="Trazado 1" d="M1031.6,33.865V39.7a.121.121,0,0,0,.04.093l6.035,4.932h.014a.085.085,0,0,1,0,.08l-2.034,1.768-4,3.483a.164.164,0,0,0-.053.106v6.209c0,.013,0,.013.013.027a.04.04,0,0,0,.053,0l10.8-9.4,2.5-2.18c.04-.04.04-.066,0-.106l-13.295-10.875a.046.046,0,0,0-.026-.013.035.035,0,0,0-.04.04" transform="translate(-1031.6 -33.825)" fill="none"/>
    </clipPath>
    <linearGradient id="linear-gradient" x1="-10.234" y1="2.344" x2="-10.224" y2="2.344" gradientUnits="objectBoundingBox">
      <stop offset="0" stop-color="#0066ac"/>
      <stop offset="1" stop-color="#005294"/>
    </linearGradient>
    <clipPath id="clip-path-2">
      <rect id="Rectángulo_2" data-name="Rectángulo 2" width="268.748" height="57.436" fill="none"/>
    </clipPath>
    <clipPath id="clip-path-3">
      <path id="Trazado_23" data-name="Trazado 23" d="M889.267,33.925a.063.063,0,0,0-.067.066V56.459a.063.063,0,0,0,.067.066h16.086c.027,0,.027-.013.027-.027V52.138a.063.063,0,0,0-.066-.066h-10.8a.063.063,0,0,1-.067-.066V47.379a.063.063,0,0,1,.067-.066h9.067a.063.063,0,0,0,.067-.066V43.032a.063.063,0,0,0-.067-.066h-9.04a.091.091,0,0,1-.093-.093V38.405a.063.063,0,0,1,.067-.066h10.8a.063.063,0,0,0,.066-.066V33.991a.063.063,0,0,0-.066-.066Z" transform="translate(-889.2 -33.925)" fill="none"/>
    </clipPath>
    <linearGradient id="linear-gradient-2" x1="0.5" y1="0.129" x2="0.5" y2="1.162" gradientUnits="objectBoundingBox">
      <stop offset="0" stop-color="#dfeff9"/>
      <stop offset="0.613" stop-color="#c5d9e2"/>
      <stop offset="1" stop-color="#a5bdc8"/>
    </linearGradient>
    <clipPath id="clip-path-4">
      <path id="Trazado_24" data-name="Trazado 24" d="M358.1,34.074a5.736,5.736,0,0,0-1,1.715,11.416,11.416,0,0,0-.585,4.626c-.013,2.712-.013,4.852-.013,6.408a8.848,8.848,0,0,0,.106,1.143,7.606,7.606,0,0,0,1.077,3.39c1.263,2.074,3.736,3.018,6.142,3.164.745.04,1.489.053,2.234.027a8.447,8.447,0,0,0,4.852-1.662q.08-.08.08.04v1.2c0,.093.04.133.133.133h4.2a.071.071,0,0,0,.08-.08V47.954l.013-6.355a.063.063,0,0,0-.066-.066h-8.641a.063.063,0,0,0-.066.066v3.935a.07.07,0,0,0,.08.08H370.5a.063.063,0,0,1,.066.066v2.991a.146.146,0,0,1-.08.133,9.627,9.627,0,0,1-5.118,1.037,3.355,3.355,0,0,1-3.324-1.981,6.737,6.737,0,0,1-.293-1.9V40.535a10.157,10.157,0,0,1,.08-1.555c.253-1.941,1.635-2.725,3.456-2.872a13.989,13.989,0,0,1,7.977,1.662.079.079,0,0,0,.12-.04l1.914-4.241c.027-.04.013-.08-.04-.106a14.7,14.7,0,0,0-5.916-1.941c-.838-.08-1.742-.12-2.725-.12h-.171c-2.857,0-6.409.341-8.35,2.752" transform="translate(-356.491 -31.322)" fill="none"/>
    </clipPath>
    <linearGradient id="linear-gradient-3" x1="0.66" y1="0.075" x2="0.644" y2="1" gradientUnits="objectBoundingBox">
      <stop offset="0" stop-color="#dfeff9"/>
      <stop offset="0.484" stop-color="#c5d9e2"/>
      <stop offset="1" stop-color="#a5bdc8"/>
    </linearGradient>
    <clipPath id="clip-path-5">
      <path id="Trazado_25" data-name="Trazado 25" d="M691,41.124c0,.013-.013.013-.026.013.013,0,.026,0,.026-.013m.053-.04h0m0,0s-.006.007-.006.009,0,0,.006-.009m-4.786-7.259a.063.063,0,0,0-.066.066V56.359a.063.063,0,0,0,.066.066h5.025a.071.071,0,0,0,.08-.08l-.106-6.448-.16-9.333v-.758c0-.12.013-.12.053-.013l.691,2.26L694.27,50l1.3,4.241a.1.1,0,0,0,.106.08h4.68c.053,0,.08-.027.106-.08l1.223-4.015,2.779-9.093.385-1.25c.067-.2.093-.186.08.013l-.027,1.356-.146,8.575-.106,6.514a.063.063,0,0,0,.067.066H710.2a.063.063,0,0,0,.066-.066V33.9a.063.063,0,0,0-.066-.066h-8.429a.084.084,0,0,0-.08.066L699.6,41.11l-1.622,5.5c-.013.04-.027.04-.04,0l-1.409-4.773L694.2,33.878a.073.073,0,0,0-.08-.053Z" transform="translate(-686.2 -33.825)" fill="none"/>
    </clipPath>
    <linearGradient id="linear-gradient-4" x1="0.097" y1="0" x2="0.089" y2="0.899" xlink:href="#linear-gradient-3"/>
    <clipPath id="clip-path-6">
      <path id="Trazado_26" data-name="Trazado 26" d="M520.016,47.744l1.941-6.634.505-1.609q.02-.08.04,0l.7,2.406,1.715,5.85c.013.04,0,.066-.053.066h-4.786c-.053,0-.08-.027-.066-.08m-.731-13.919a.1.1,0,0,0-.106.08l-2.367,7.219-2.991,9.107L511.8,56.386V56.4a.035.035,0,0,0,.04.04h5.584c.027,0,.04-.013.053-.04l1.17-3.948a.084.084,0,0,1,.08-.066H526.2a.074.074,0,0,1,.08.066l1.157,3.922a.088.088,0,0,0,.093.066h5.557c.04-.027.053-.053.04-.093l-2.034-6.209-2.7-8.2-2.646-8.03a.1.1,0,0,0-.106-.08Z" transform="translate(-511.8 -33.825)" fill="none"/>
    </clipPath>
    <linearGradient id="linear-gradient-5" x1="0.118" x2="0.117" y2="1" gradientUnits="objectBoundingBox">
      <stop offset="0" stop-color="#dfeff9"/>
      <stop offset="0.409" stop-color="#c5d9e2"/>
      <stop offset="1" stop-color="#a5bdc8"/>
    </linearGradient>
    <clipPath id="clip-path-8">
      <path id="Trazado_35" data-name="Trazado 35" d="M642.383,232.625c-2.22.027-4.839.638-6.435,2.207a5.428,5.428,0,0,0-1.409,2.247A8.75,8.75,0,0,0,634.3,241a4.656,4.656,0,0,0,2.819,3.962c2.22,1.037,4.719,1.183,7.072,1.622a8.364,8.364,0,0,1,1.356.4,1.72,1.72,0,0,1,1.21,1.609c.213,1.516-.824,2.167-2.154,2.326a15.947,15.947,0,0,1-9.452-1.7.057.057,0,0,0-.093.027l-1.861,4.228a.167.167,0,0,0,.067.213,16.883,16.883,0,0,0,6.82,2.087,29.836,29.836,0,0,0,4.627,0,12.688,12.688,0,0,0,3.456-.731c2.991-1.1,4.241-3.576,4.081-6.634a6.834,6.834,0,0,0-.558-2.845,5.8,5.8,0,0,0-3.842-2.938,23.181,23.181,0,0,0-3.829-.8c-.346-.053-1.05-.16-2.114-.346a4.808,4.808,0,0,1-1.689-.6,1.9,1.9,0,0,1-.518-1.688c.133-1.529,2.087-1.7,3.244-1.728a13.565,13.565,0,0,1,6.94,1.649.081.081,0,0,0,.12-.053l1.914-4.268c.027-.053.013-.093-.04-.106a15.311,15.311,0,0,0-7.485-2.061Z" transform="translate(-633.18 -232.625)" fill="none"/>
    </clipPath>
    <linearGradient id="linear-gradient-6" x1="0.62" x2="0.607" y2="1" gradientUnits="objectBoundingBox">
      <stop offset="0" stop-color="#dfeff9"/>
      <stop offset="0.363" stop-color="#c5d9e2"/>
      <stop offset="1" stop-color="#a5bdc8"/>
    </linearGradient>
    <clipPath id="clip-path-9">
      <path id="Trazado_36" data-name="Trazado 36" d="M796.827,232.56a11.671,11.671,0,0,0-4.414.891,5.9,5.9,0,0,0-3.736,5.437,8.994,8.994,0,0,0,.306,3.084,4.219,4.219,0,0,0,2.034,2.592,9.682,9.682,0,0,0,2.672,1.064c1.808.425,3.988.678,5.424,1,1.05.226,2.008.638,2.127,1.875a3.637,3.637,0,0,1-.013.7c-.186,1.157-1.2,1.542-2.22,1.649a15.887,15.887,0,0,1-9.4-1.715.048.048,0,0,0-.066.027l-1.875,4.307a.107.107,0,0,0,.04.12,16.669,16.669,0,0,0,7.219,2.14,34.022,34.022,0,0,0,3.51.027,11.581,11.581,0,0,0,5.517-1.423,6.069,6.069,0,0,0,2.752-5.823,6.662,6.662,0,0,0-.425-2.752c-.984-2.433-3.563-3.244-5.982-3.7-.984-.186-1.755-.306-2.3-.386a19.225,19.225,0,0,1-2.287-.425,1.735,1.735,0,0,1-1.529-2.14c.106-1.383,1.755-1.662,2.938-1.7a13.569,13.569,0,0,1,7.232,1.635.079.079,0,0,0,.12-.04l1.914-4.281c.013-.04.013-.066-.027-.093a15.161,15.161,0,0,0-7.471-2.074c-.352-.007-.7-.01-1.04-.01s-.681,0-1.02.01" transform="translate(-787.662 -232.55)" fill="none"/>
    </clipPath>
    <linearGradient id="linear-gradient-7" x1="0.5" x2="0.5" y2="0.94" gradientUnits="objectBoundingBox">
      <stop offset="0" stop-color="#dfeff9"/>
      <stop offset="0.327" stop-color="#c5d9e2"/>
      <stop offset="1" stop-color="#a5bdc8"/>
    </linearGradient>
    <clipPath id="clip-path-10">
      <path id="Trazado_37" data-name="Trazado 37" d="M362.078,245.657v-6.341a.063.063,0,0,1,.066-.066c1.329-.013,2.579-.013,3.776,0a2.24,2.24,0,0,1,2.473,1.954,7.55,7.55,0,0,1,.067,1.994,2.376,2.376,0,0,1-2.632,2.526h-3.683a.063.063,0,0,1-.066-.066m-5.251-10.862c-.027,0-.027.013-.027.027v22.494a.063.063,0,0,0,.066.067h5.118a.071.071,0,0,0,.08-.08v-7.139a.063.063,0,0,1,.066-.066h3.975a10.523,10.523,0,0,0,4.135-.678c2.632-1.09,3.643-3.7,3.669-6.408a12.292,12.292,0,0,0-.133-2.672,6,6,0,0,0-3.044-4.653,8.312,8.312,0,0,0-3.8-.891q-2-.02-4.528-.02t-5.576.02" transform="translate(-356.8 -234.775)" fill="none"/>
    </clipPath>
    <linearGradient id="linear-gradient-8" x1="0.329" y1="0" x2="0.335" y2="1" xlink:href="#linear-gradient-3"/>
    <clipPath id="clip-path-11">
      <path id="Trazado_38" data-name="Trazado 38" d="M476.471,248.771l1.4-4.839.984-3.35q.06-.219.12,0l.957,3.31,1.423,4.879v.013a.057.057,0,0,1-.053.053h-4.773c-.053,0-.066-.027-.053-.066m-.731-13.946a.1.1,0,0,0-.093.066l-2.965,9.014-2.233,6.78-2.18,6.674c-.013.04,0,.066.053.066h5.531a.084.084,0,0,0,.08-.066l1.157-3.922a.085.085,0,0,1,.093-.066h7.445a.1.1,0,0,1,.093.066l1.143,3.922c.013.053.04.066.093.066h5.6a.026.026,0,0,0,.013-.04l-2.22-6.807L485.179,244l-2.991-9.093a.1.1,0,0,0-.106-.08Z" transform="translate(-468.264 -234.825)" fill="none"/>
    </clipPath>
    <linearGradient id="linear-gradient-9" x1="0.5" y1="0.107" x2="0.5" y2="1.071" gradientUnits="objectBoundingBox">
      <stop offset="0" stop-color="#dfeff9"/>
      <stop offset="0.328" stop-color="#c5d9e2"/>
      <stop offset="1" stop-color="#a5bdc8"/>
    </linearGradient>
  </defs>
  <g id="Grupo_2" data-name="Grupo 2" transform="translate(137.146 4.497)">
    <g id="Grupo_1" data-name="Grupo 1" clip-path="url(#clip-path)">
      <rect id="Rectángulo_1" data-name="Rectángulo 1" width="13.401" height="22.587" transform="translate(0 0)" fill="url(#linear-gradient)"/>
    </g>
  </g>
  <g id="Grupo_4" data-name="Grupo 4">
    <g id="Grupo_3" data-name="Grupo 3" clip-path="url(#clip-path-2)">
      <path id="Trazado_2" data-name="Trazado 2" d="M9.506,50.6C5.57,49.871,1.183,47.85.173,43.569A9.571,9.571,0,0,1,0,41.562V6.544a.063.063,0,0,1,.066-.066H1.29a.3.3,0,0,1,.146.04A11.727,11.727,0,0,0,13.68,7.528,14.132,14.132,0,0,0,20.9.03c.013-.04.04-.04.053,0a14.156,14.156,0,0,0,8.256,7.924A11.6,11.6,0,0,0,40.415,6.518a.378.378,0,0,1,.16-.053H41.8c.053,0,.066.027.066.066V41.2a10.873,10.873,0,0,1-.2,2.433,8.526,8.526,0,0,1-4.693,5.437,17.417,17.417,0,0,1-5.065,1.609A16.807,16.807,0,0,0,24.7,53.048,13.117,13.117,0,0,0,20.965,57.4c-.027.053-.066.053-.093,0a14.019,14.019,0,0,0-3.138-3.909A13.591,13.591,0,0,0,11.5,50.935c-.625-.093-1.3-.213-1.994-.332m2.752-.784a12.668,12.668,0,0,1,8.628,5.3c.013.027.04.027.066.013l.013-.013c2.14-3.27,5.65-4.879,9.506-5.464.838-.12,1.635-.266,2.393-.452,3.669-.838,7.751-2.965,7.751-7.285V7.914a.029.029,0,0,0-.027-.027h-.013A12.549,12.549,0,0,1,34.1,10.014a11.625,11.625,0,0,1-2.659-.173A15.591,15.591,0,0,1,20.965,2.835a.05.05,0,0,0-.08-.013c-.013,0-.013.013-.013.027A15.48,15.48,0,0,1,9.027,10.027,12.542,12.542,0,0,1,2.672,8.711c-.279-.133-.718-.4-1.343-.784q-.08-.04-.08.04.02,16.851,0,33.835a8.123,8.123,0,0,0,.106,1.383,6.79,6.79,0,0,0,3.111,4.228A15.2,15.2,0,0,0,10.3,49.485c.691.106,1.343.213,1.954.332" transform="translate(0 0)" fill="#fff"/>
      <path id="Trazado_3" data-name="Trazado 3" d="M1652.7,33.016l3.137,3.138a.069.069,0,0,1,.027.053V60.948a.063.063,0,0,1-.066.066h-55.93a.063.063,0,0,1-.067-.066V36.207a.1.1,0,0,1,.027-.053l3.137-3.138a.064.064,0,0,0,0-.093l-3.137-3.137a.069.069,0,0,1-.027-.053V4.991a.063.063,0,0,1,.067-.066h55.93a.063.063,0,0,1,.066.066V29.733a.1.1,0,0,1-.027.053l-3.137,3.137a.064.064,0,0,0,0,.093m-45.56-1.157a1.472,1.472,0,0,1,.093,2.114l-3.869,3.869a.2.2,0,0,0-.053.146V57.412a.063.063,0,0,0,.066.066h48.857a.062.062,0,0,0,.066-.066V37.962a.12.12,0,0,0-.04-.093c-1.276-1.263-2.539-2.526-3.775-3.776a1.51,1.51,0,0,1,.026-2.26c1.29-1.276,2.539-2.526,3.749-3.736a.2.2,0,0,0,.053-.12V8.541a.063.063,0,0,0-.067-.066h-48.87a.063.063,0,0,0-.066.066v19.41a.282.282,0,0,0,.053.146c1.25,1.25,2.513,2.513,3.776,3.762" transform="translate(-1387.114 -4.27)" fill="#fff"/>
      <path id="Trazado_4" data-name="Trazado 4" d="M29.036,73.4a12.668,12.668,0,0,0-8.628-5.3c-.612-.12-1.263-.226-1.954-.332a15.2,15.2,0,0,1-5.836-2.074,6.742,6.742,0,0,1-3.111-4.228A6.87,6.87,0,0,1,9.4,60.084q.02-16.99,0-33.835,0-.08.08-.04a15.345,15.345,0,0,0,1.343.784,12.669,12.669,0,0,0,6.355,1.3,15.4,15.4,0,0,0,11.845-7.179.064.064,0,0,1,.08-.027c.013,0,.013.013.027.013a15.7,15.7,0,0,0,10.463,7.019,11.676,11.676,0,0,0,2.659.173,12.509,12.509,0,0,0,6.474-2.127c.013-.013.027,0,.04.013V60.2c0,4.321-4.081,6.448-7.751,7.285-.758.173-1.555.319-2.393.452-3.869.572-7.365,2.18-9.506,5.464a.058.058,0,0,1-.08,0h0m2.672-43.26a.05.05,0,0,1-.08,0,5.688,5.688,0,0,0-1.914-.984c-.066-.027-.08-.053-.013-.093l.439-.279a.152.152,0,0,1,.133-.013l.479.173a.125.125,0,0,0,.12-.013,11.776,11.776,0,0,1,2.154-1.276c.226-.106.213-.16-.027-.16a8.815,8.815,0,0,0-8.708,5.69,10.353,10.353,0,0,0-.053,6.129,4.729,4.729,0,0,0,.306.8c.053.12.093.106.106-.013a19.7,19.7,0,0,1,1.675-5.783c.027-.053.013-.093-.053-.106l-.6-.16a.056.056,0,0,1-.04-.08l.2-.4a.117.117,0,0,1,.133-.066,5.025,5.025,0,0,1,2.154,1,.08.08,0,0,1,.013.106l-.253.412c-.027.04-.053.04-.08.013l-.612-.412a.1.1,0,0,0-.133.027v.013a20.825,20.825,0,0,0-2.14,5.5c-.053.2.027.292.239.266C29.435,40,33.41,37.722,34.221,33.2a9.154,9.154,0,0,0-.572-5.331.224.224,0,0,0-.292-.106c-.013,0-.013.013-.027.013A11.646,11.646,0,0,0,31.5,29.241a.064.064,0,0,0,0,.093l.013.013.585.4a.058.058,0,0,1,.013.066v.013ZM14.266,31.474c-.013,0-.027-.013-.04-.027l-.585-1.728c-.013-.027-.027-.027-.053-.027s-.013.013-.027.027l-.585,1.728c0,.013-.027.027-.04.027l-1.821.013a.035.035,0,0,0-.04.04.049.049,0,0,0,.013.04l1.476,1.09a.049.049,0,0,1,.013.04l-.545,1.742c-.013.027,0,.04.027.053h.04l1.489-1.064a.04.04,0,0,1,.053,0l1.489,1.064a.033.033,0,0,0,.053-.013.025.025,0,0,0,0-.04L14.638,32.7c0-.013,0-.04.013-.04l1.476-1.09c.013-.013.027-.04.013-.053a.049.049,0,0,0-.04-.013Zm6.82,0c-.013,0-.027-.013-.04-.027l-.585-1.742c-.013-.027-.027-.027-.053-.027s-.013.013-.027.027l-.572,1.742c0,.013-.027.027-.04.027l-1.835.013a.035.035,0,0,0-.04.04c0,.013,0,.027.013.027l1.476,1.09a.049.049,0,0,1,.013.04l-.558,1.755c-.013.027,0,.04.027.053h.04l1.489-1.064a.04.04,0,0,1,.053,0l1.489,1.064a.033.033,0,0,0,.053-.013.025.025,0,0,0,0-.04l-.558-1.755c0-.013,0-.04.013-.04l1.476-1.09c.013-.013.027-.04.013-.053s-.013-.013-.027-.013Zm17.323,0c-.013,0-.04-.013-.04-.027l-.585-1.728c-.013-.027-.04-.04-.053-.027a.029.029,0,0,0-.027.027l-.585,1.728c0,.013-.027.027-.04.027l-1.821.013a.035.035,0,0,0-.04.04c0,.013.013.027.013.04l1.462,1.09c.013.013.027.027.013.053l-.545,1.742c-.013.027,0,.053.027.053h.04l1.476-1.05a.04.04,0,0,1,.053,0l1.476,1.05c.027.013.053.013.066-.013a.025.025,0,0,0,0-.04l-.545-1.742a.08.08,0,0,1,.013-.053l1.462-1.09c.027-.013.027-.04.013-.066a.049.049,0,0,0-.04-.013Zm6.807,0c-.013,0-.04-.013-.04-.027L44.6,29.719c-.013-.027-.027-.04-.053-.027a.029.029,0,0,0-.027.027l-.585,1.728c0,.013-.027.027-.04.027l-1.821.013a.035.035,0,0,0-.04.04.049.049,0,0,0,.013.04l1.462,1.09c.013.013.027.027.013.04l-.545,1.742c-.013.027,0,.04.027.053h.04l1.489-1.064a.04.04,0,0,1,.053,0l1.489,1.064a.033.033,0,0,0,.053-.013.025.025,0,0,0,0-.04L45.588,32.7a.08.08,0,0,1,.013-.053l1.462-1.077c.013-.013.027-.04.013-.053a.049.049,0,0,0-.04-.013ZM14.279,37.616c-.013,0-.04-.013-.04-.027l-.585-1.728c-.013-.027-.04-.04-.053-.027a.029.029,0,0,0-.027.027l-.585,1.728c0,.013-.027.027-.04.027l-1.821.013a.042.042,0,0,0-.04.04.046.046,0,0,0,.013.027l1.462,1.077c.013.013.027.027.013.053l-.545,1.742c-.013.027,0,.053.027.053h.04l1.476-1.05a.04.04,0,0,1,.053,0l1.489,1.05c.027.013.053.013.066-.013a.025.025,0,0,0,0-.04l-.545-1.742a.08.08,0,0,1,.013-.053L16.114,37.7a.058.058,0,0,0,.013-.066.041.041,0,0,0-.027-.013Zm6.807,0c-.013,0-.04-.013-.04-.027l-.585-1.742c-.013-.027-.027-.04-.053-.027a.029.029,0,0,0-.027.027L19.8,37.589c0,.013-.027.027-.04.027l-1.835.013a.042.042,0,0,0-.04.04c0,.013,0,.027.013.027l1.476,1.09c.013.013.027.027.013.04l-.558,1.755a.069.069,0,0,0,.027.053h.04l1.489-1.064a.04.04,0,0,1,.053,0l1.489,1.064a.033.033,0,0,0,.053-.013.025.025,0,0,0,0-.04l-.558-1.755c0-.013,0-.04.013-.04l1.476-1.09c.013-.013.027-.04.013-.053s-.013-.013-.027-.013Zm17.323,0c-.013,0-.04-.013-.04-.027l-.585-1.728c-.013-.027-.027-.04-.053-.027a.029.029,0,0,0-.027.027l-.585,1.728c0,.013-.027.027-.04.027l-1.821.013a.035.035,0,0,0-.04.04.049.049,0,0,0,.013.04l1.462,1.09c.013.013.027.027.013.053l-.545,1.742c-.013.027,0,.04.027.053h.04l1.489-1.05a.04.04,0,0,1,.053,0l1.489,1.05a.033.033,0,0,0,.053-.013.025.025,0,0,0,0-.04l-.545-1.742a.08.08,0,0,1,.013-.053l1.462-1.09c.013-.013.027-.04.013-.053a.049.049,0,0,0-.04-.013Zm6.807,0c-.013,0-.04-.013-.04-.027l-.585-1.728c-.013-.027-.027-.04-.053-.027a.029.029,0,0,0-.027.027l-.585,1.728c0,.013-.027.027-.04.027l-1.821.013a.042.042,0,0,0-.04.04c0,.013,0,.027.013.027l1.462,1.09c.013.013.027.027.013.053l-.545,1.742c-.013.027,0,.04.027.053h.04l1.489-1.064a.04.04,0,0,1,.053,0l1.489,1.064a.033.033,0,0,0,.053-.013.025.025,0,0,0,0-.04l-.545-1.742a.08.08,0,0,1,.013-.053L47.05,37.7c.013-.013.027-.04.013-.053s-.013-.013-.027-.013ZM20.594,65.774a16.735,16.735,0,0,1,8.442,4.095c.04.04.066.04.106,0a16.06,16.06,0,0,1,7.99-3.988c1.01-.213,2.007-.4,2.991-.572a12.349,12.349,0,0,0,3.935-1.436c1.024-.585,2.3-1.808,2.366-3.058.013-.16.013-.306.013-.465q.02-8.934,0-17.815c0-.053-.027-.066-.066-.066H11.766a.071.071,0,0,0-.08.08V60.057a4.2,4.2,0,0,0,.16,1.25c.8,2.566,4.414,3.736,6.793,4.135.984.16,1.635.266,1.954.332" transform="translate(-8.15 -18.283)" fill="#00306b"/>
      <path id="Trazado_5" data-name="Trazado 5" d="M126.061,71.247l-.585-.4a.064.064,0,0,1-.013-.093.013.013,0,0,1,.013-.013,11.645,11.645,0,0,1,1.835-1.462.217.217,0,0,1,.306.066c0,.013.013.013.013.027A9.154,9.154,0,0,1,128.2,74.7c-.811,4.533-4.8,6.793-9.067,7.232-.2.027-.279-.066-.239-.266a21.587,21.587,0,0,1,2.14-5.5.091.091,0,0,1,.12-.04h.013l.612.412c.027.027.053.013.08-.013l.253-.412a.082.082,0,0,0-.013-.106,5.1,5.1,0,0,0-2.154-1,.117.117,0,0,0-.133.066l-.2.4q-.04.06.04.08l.6.16a.07.07,0,0,1,.053.106,19.819,19.819,0,0,0-1.675,5.783c-.013.133-.053.133-.106.013a5.216,5.216,0,0,1-.306-.8,10.25,10.25,0,0,1,.053-6.129A8.8,8.8,0,0,1,126.978,69c.253.013.266.066.027.16a11.776,11.776,0,0,0-2.154,1.276.1.1,0,0,1-.12.013l-.479-.173a.152.152,0,0,0-.133.013l-.439.279c-.066.04-.053.08.013.093a5.687,5.687,0,0,1,1.914.984.05.05,0,0,0,.08,0l.386-.372c0,.027,0,0-.013-.027m-1.13,1.024a5.459,5.459,0,0,0-2.061-1.024c-.027-.013-.04,0-.066.013a5.346,5.346,0,0,0-.505.452v.013a5.636,5.636,0,0,1,2.18,1.05.075.075,0,0,0,.12-.013l.332-.372a.075.075,0,0,0,0-.12m-3.669.651a5.293,5.293,0,0,1,2.247,1.09.033.033,0,0,0,.053-.013l.372-.479a.033.033,0,0,0-.013-.053,5.3,5.3,0,0,0-2.233-1.077.12.12,0,0,0-.133.04l-.319.4a.059.059,0,0,0,0,.066c0,.027.013.027.027.027m-.891,1.316a5.277,5.277,0,0,1,2.207,1.037c.04.027.066.027.093-.013l.306-.452a.08.08,0,0,0-.013-.106,5.385,5.385,0,0,0-2.22-1.064.107.107,0,0,0-.12.053l-.279.452a.07.07,0,0,0,.027.093c-.013-.013-.013,0,0,0" transform="translate(-102.117 -59.824)" fill="#fff"/>
      <path id="Trazado_6" data-name="Trazado 6" d="M1716.254,89.685a4.946,4.946,0,0,1-3.364,3.244,7.421,7.421,0,0,1-2.14.213c-1.648-.013-3.3-.013-4.972,0a1.228,1.228,0,0,1-.532-.106.494.494,0,0,1-.319-.518c-.013-1.5-.013-2.978-.027-4.427q0-5.384.014-10.1c0-.465.066-.877.611-.891,1.649-.027,3.456-.027,5.438,0a5.513,5.513,0,0,1,4.573,2.154,5.865,5.865,0,0,1,1.13,3.483v4.706a6.466,6.466,0,0,1-.412,2.247m-3.417-2.021c.067-1.356.067-2.858.027-4.507-.027-1.343-.372-2.725-1.954-2.872a18.793,18.793,0,0,0-2.18-.04.063.063,0,0,0-.066.066v9.559a.07.07,0,0,0,.08.08c1.077.013,1.808.013,2.193-.013,1.316-.066,1.848-1.05,1.9-2.273" transform="translate(-1478.242 -66.828)" fill="#fff"/>
      <path id="Trazado_7" data-name="Trazado 7" d="M1829.275,89.816h-5.2a.1.1,0,0,0-.106.08c-.293,1.037-.571,1.968-.851,2.818a.654.654,0,0,1-.625.465h-2.353c-.518,0-.651-.439-.505-.877q2.473-7.418,4.892-14.611a.8.8,0,0,1,.891-.572c.944.013,1.888.013,2.845.013a.772.772,0,0,1,.8.6q2.413,7.319,4.746,14.358c.106.332.279.784-.093,1.024a.647.647,0,0,1-.332.08c-.838,0-1.635-.013-2.42,0a.791.791,0,0,1-.744-.6c-.279-.9-.559-1.795-.824-2.659-.013-.08-.053-.12-.12-.12m-.811-2.991-1.769-5.81c-.026-.066-.04-.066-.066,0l-1.728,5.81c-.013.053,0,.08.053.08h3.457a.057.057,0,0,0,.053-.053Z" transform="translate(-1577.677 -66.866)" fill="#fff"/>
      <path id="Trazado_8" data-name="Trazado 8" d="M25.155,87.693l1.835.013a.035.035,0,0,1,.04.04.049.049,0,0,1-.013.04l-1.476,1.09a.049.049,0,0,0-.013.04l.545,1.742c.013.027,0,.04-.027.053h-.04l-1.489-1.064a.04.04,0,0,0-.053,0l-1.489,1.064a.033.033,0,0,1-.053-.013.025.025,0,0,1,0-.04l.545-1.742c0-.013,0-.04-.013-.04l-1.476-1.09c-.013-.013-.027-.04-.013-.053A.049.049,0,0,1,22,87.72l1.821-.013c.013,0,.027-.013.04-.027l.585-1.728c.013-.027.027-.027.053-.027s.013.013.027.027l.585,1.728c.013,0,.027.013.04.013" transform="translate(-19.039 -74.502)" fill="#fff"/>
      <path id="Trazado_9" data-name="Trazado 9" d="M76.628,87.52l1.835.013a.035.035,0,0,1,.04.04c0,.013,0,.027-.013.027l-1.476,1.09a.049.049,0,0,0-.013.04l.558,1.755c.013.027,0,.04-.027.053h-.04L76,89.474a.04.04,0,0,0-.053,0l-1.489,1.064a.033.033,0,0,1-.053-.013.025.025,0,0,1,0-.04l.558-1.755c0-.013,0-.04-.013-.04L73.477,87.6c-.013-.013-.027-.04-.013-.053s.013-.013.027-.013l1.835-.013c.013,0,.027-.013.04-.027l.585-1.742c.013-.027.027-.027.053-.027s.013.013.027.027l.585,1.742c-.027.013-.013.027.013.027" transform="translate(-63.693 -74.328)" fill="#fff"/>
      <path id="Trazado_10" data-name="Trazado 10" d="M206.907,87.572l1.821.013a.035.035,0,0,1,.04.04c0,.013-.013.027-.013.04l-1.462,1.09c-.013.013-.027.027-.013.053l.545,1.742c.013.027,0,.053-.027.053h-.04l-1.476-1.05a.04.04,0,0,0-.053,0l-1.476,1.05c-.027.013-.053.013-.066-.013a.025.025,0,0,1,0-.04l.545-1.742a.08.08,0,0,0-.013-.053l-1.462-1.09c-.027-.013-.027-.04-.013-.066a.049.049,0,0,1,.04-.013l1.821-.013c.013,0,.04-.013.04-.027l.585-1.728c.013-.027.04-.04.053-.027a.029.029,0,0,1,.027.027l.585,1.728c-.027.013,0,.027.013.027" transform="translate(-176.649 -74.381)" fill="#fff"/>
      <path id="Trazado_11" data-name="Trazado 11" d="M258.041,87.746l1.821.027a.035.035,0,0,1,.04.04.049.049,0,0,1-.013.04l-1.462,1.077c-.013.013-.027.027-.013.053l.545,1.742c.013.027,0,.04-.027.053h-.04L257.4,89.713a.04.04,0,0,0-.053,0l-1.489,1.064a.033.033,0,0,1-.053-.013.025.025,0,0,1,0-.04l.545-1.742c0-.013,0-.04-.013-.04l-1.462-1.09c-.013-.013-.027-.04-.013-.053a.049.049,0,0,1,.04-.013l1.821-.013c.013,0,.04-.013.04-.027l.585-1.728c.013-.027.027-.04.053-.027a.029.029,0,0,1,.027.027L258,87.746c0-.013.027,0,.04,0" transform="translate(-220.976 -74.554)" fill="#fff"/>
      <path id="Trazado_12" data-name="Trazado 12" d="M152.458,85.96a5.458,5.458,0,0,1,2.061,1.024.07.07,0,0,1,.013.106l-.332.372c-.04.04-.08.053-.12.013a5.54,5.54,0,0,0-2.18-1.05v-.013c.16-.16.332-.306.505-.452.013-.013.027-.013.053,0" transform="translate(-131.706 -74.523)" fill="#00306b"/>
      <path id="Trazado_13" data-name="Trazado 13" d="M145.987,96.3a5.143,5.143,0,0,0-2.247-1.09c-.027,0-.04-.027-.04-.053s0-.013.013-.027l.319-.4a.12.12,0,0,1,.133-.04,5.633,5.633,0,0,1,2.233,1.077c.013.013.027.04.013.053l-.372.479c-.027.013-.04.013-.053,0" transform="translate(-124.596 -82.099)" fill="#00306b"/>
      <path id="Trazado_14" data-name="Trazado 14" d="M136.953,104.414a.073.073,0,0,1-.053-.08c0-.013,0-.013.013-.027l.279-.452a.116.116,0,0,1,.12-.053,5.466,5.466,0,0,1,2.22,1.064.07.07,0,0,1,.013.106l-.306.452c-.027.04-.053.04-.093.013a5.047,5.047,0,0,0-2.194-1.024" transform="translate(-118.7 -89.999)" fill="#00306b"/>
      <path id="Trazado_15" data-name="Trazado 15" d="M1219.148,121.806v-1.29a.271.271,0,0,0-.04-.146,2.449,2.449,0,0,0-1.449-.984,15.69,15.69,0,0,1-3.536-1.143c-.412-.226-1.2-.864-1.183-1.409.013-.625.013-1.25,0-1.861a.352.352,0,0,1,.04-.16,4.093,4.093,0,0,1,3.164-1.981,4.478,4.478,0,0,1,4.44,1.821.837.837,0,0,1,.146.465q-.02.618,0,1.2a.071.071,0,0,1-.08.08h-1.422a.074.074,0,0,1-.08-.066v-.877a.37.37,0,0,0-.08-.239,2.529,2.529,0,0,0-1.808-1.09,2.722,2.722,0,0,0-2.7,1.1.223.223,0,0,0-.04.133c0,.292,0,.6-.013.931-.013.638,1,1.077,1.476,1.21.692.186,1.4.386,2.127.6a4.149,4.149,0,0,1,2.539,1.688.268.268,0,0,1,.04.146v2.194a.742.742,0,0,1-.133.439,4.648,4.648,0,0,1-5.437,1.609,4.07,4.07,0,0,1-2.074-1.622.828.828,0,0,1-.146-.452c.013-.465.013-.9,0-1.343a.074.074,0,0,1,.067-.08h1.462a.063.063,0,0,1,.067.066v1.09a.225.225,0,0,0,.04.133,2.765,2.765,0,0,0,4.533-.027.136.136,0,0,0,.08-.133" transform="translate(-1051.651 -97.792)" fill="#fff"/>
      <path id="Trazado_16" data-name="Trazado 16" d="M1294.12,114.912a4.581,4.581,0,0,1,5.371-1.928,3.931,3.931,0,0,1,2.46,1.941,1.1,1.1,0,0,1,.146.532v6.435a.352.352,0,0,1-.04.16,4.422,4.422,0,0,1-4.945,2.287,4.057,4.057,0,0,1-2.991-2.087.993.993,0,0,1-.133-.505V115.43a.947.947,0,0,1,.133-.518m4.307-.811a2.666,2.666,0,0,0-2.686,1.2.825.825,0,0,0-.133.465v5.69a.875.875,0,0,0,.159.505,2.745,2.745,0,0,0,4.547-.04.828.828,0,0,0,.146-.452v-5.717a.8.8,0,0,0-.146-.465,2.489,2.489,0,0,0-1.888-1.183" transform="translate(-1121.956 -97.785)" fill="#fff"/>
      <path id="Trazado_17" data-name="Trazado 17" d="M1443.139,113.009A4.54,4.54,0,0,1,1448.39,115a.867.867,0,0,1,.133.479v6.341a.981.981,0,0,1-.12.479,4.041,4.041,0,0,1-2.805,2.061,5.233,5.233,0,0,1-3.071-.239,3.988,3.988,0,0,1-1.981-1.781,1,1,0,0,1-.147-.505v-6.328a1,1,0,0,1,.133-.519,3.95,3.95,0,0,1,2.606-1.981m1.768,1.157a2.682,2.682,0,0,0-2.712,1.143,1.008,1.008,0,0,0-.173.585q.02,2.812,0,5.624a.734.734,0,0,0,.147.452,2.766,2.766,0,0,0,3.257,1.064c.558-.186,1.476-.824,1.476-1.516v-5.69a.783.783,0,0,0-.146-.479,2.455,2.455,0,0,0-1.848-1.183" transform="translate(-1248.906 -97.836)" fill="#fff"/>
      <path id="Trazado_18" data-name="Trazado 18" d="M1381.462,124.329h4.042a.035.035,0,0,1,.04.04v1.21a.035.035,0,0,1-.04.04h-5.664a.035.035,0,0,1-.04-.04V114.465a.035.035,0,0,1,.04-.04h1.543a.035.035,0,0,1,.04.04v9.825c-.013.013.013.04.04.04" transform="translate(-1196.362 -99.213)" fill="#fff"/>
      <path id="Trazado_19" data-name="Trazado 19" d="M25.341,133.686l1.821.013a.042.042,0,0,1,.04.04.046.046,0,0,1-.013.027l-1.462,1.077c-.013.013-.027.027-.013.053l.545,1.742c.013.027,0,.053-.027.053h-.04L24.7,135.64a.04.04,0,0,0-.053,0l-1.476,1.05c-.027.013-.053.013-.066-.013a.025.025,0,0,1,0-.04l.545-1.742a.08.08,0,0,0-.013-.053l-1.462-1.077a.058.058,0,0,1-.013-.066.041.041,0,0,1,.027-.013l1.821-.013c.013,0,.04-.013.04-.027l.585-1.728c.013-.027.04-.04.053-.027a.029.029,0,0,1,.027.027l.585,1.728a.035.035,0,0,0,.04.04" transform="translate(-19.213 -114.352)" fill="#fff"/>
      <path id="Trazado_20" data-name="Trazado 20" d="M76.628,133.686l1.835.013a.042.042,0,0,1,.04.04c0,.013,0,.027-.013.027l-1.476,1.09c-.013.013-.027.027-.013.04l.558,1.755a.069.069,0,0,1-.027.053h-.04L76,135.64a.04.04,0,0,0-.053,0L74.461,136.7a.033.033,0,0,1-.053-.013.025.025,0,0,1,0-.04l.558-1.755c0-.013,0-.04-.013-.04l-1.476-1.09c-.013-.013-.027-.04-.013-.053s.013-.013.027-.013l1.835-.013c.013,0,.04-.013.04-.027l.585-1.742c.013-.027.027-.04.053-.027a.029.029,0,0,1,.027.027l.585,1.742c-.027.013-.013.027.013.027" transform="translate(-63.693 -114.352)" fill="#fff"/>
      <path id="Trazado_21" data-name="Trazado 21" d="M206.841,133.859l1.821.013a.035.035,0,0,1,.04.04.049.049,0,0,1-.013.04l-1.462,1.09c-.013.013-.027.027-.013.053l.545,1.742c.013.027,0,.04-.027.053h-.04l-1.489-1.05a.041.041,0,0,0-.053,0l-1.489,1.05a.033.033,0,0,1-.053-.013.025.025,0,0,1,0-.04l.545-1.742a.08.08,0,0,0-.013-.053l-1.462-1.09c-.013-.013-.027-.04-.013-.053a.049.049,0,0,1,.04-.013l1.821-.013c.013,0,.04-.013.04-.027l.585-1.728c.013-.027.027-.04.053-.027a.029.029,0,0,1,.027.027l.585,1.728c-.013,0,.013.013.027.013" transform="translate(-176.583 -114.526)" fill="#fff"/>
      <path id="Trazado_22" data-name="Trazado 22" d="M258.041,133.772l1.821.013a.042.042,0,0,1,.04.04c0,.013,0,.027-.013.027l-1.462,1.09c-.013.013-.027.027-.013.053l.545,1.742c.013.027,0,.04-.027.053h-.04l-1.489-1.064a.04.04,0,0,0-.053,0l-1.489,1.064a.033.033,0,0,1-.053-.013.025.025,0,0,1,0-.04l.545-1.742a.08.08,0,0,0-.013-.053l-1.462-1.09c-.013-.013-.027-.04-.013-.053s.013-.013.027-.013l1.821-.013c.013,0,.04-.013.04-.027l.585-1.728c.013-.027.027-.04.053-.027a.029.029,0,0,1,.027.027l.585,1.728c0,.013.013.027.04.027" transform="translate(-220.976 -114.439)" fill="#fff"/>
    </g>
  </g>
  <g id="Grupo_6" data-name="Grupo 6" transform="translate(118.215 4.51)">
    <g id="Grupo_5" data-name="Grupo 5" clip-path="url(#clip-path-3)">
      <rect id="Rectángulo_3" data-name="Rectángulo 3" width="16.179" height="22.601" transform="translate(0 0)" fill="url(#linear-gradient-2)"/>
    </g>
  </g>
  <g id="Grupo_8" data-name="Grupo 8" transform="translate(47.394 4.164)">
    <g id="Grupo_7" data-name="Grupo 7" clip-path="url(#clip-path-4)">
      <rect id="Rectángulo_4" data-name="Rectángulo 4" width="19.011" height="23.252" transform="translate(-0.079 0)" fill="url(#linear-gradient-3)"/>
    </g>
  </g>
  <g id="Grupo_10" data-name="Grupo 10" transform="translate(91.227 4.497)">
    <g id="Grupo_9" data-name="Grupo 9" clip-path="url(#clip-path-5)">
      <rect id="Rectángulo_5" data-name="Rectángulo 5" width="24.063" height="22.601" transform="translate(0 0)" fill="url(#linear-gradient-4)"/>
    </g>
  </g>
  <g id="Grupo_12" data-name="Grupo 12" transform="translate(68.041 4.497)">
    <g id="Grupo_11" data-name="Grupo 11" clip-path="url(#clip-path-6)">
      <rect id="Rectángulo_6" data-name="Rectángulo 6" width="21.338" height="22.614" transform="translate(0 0)" fill="url(#linear-gradient-5)"/>
    </g>
  </g>
  <g id="Grupo_14" data-name="Grupo 14">
    <g id="Grupo_13" data-name="Grupo 13" clip-path="url(#clip-path-2)">
      <path id="Trazado_27" data-name="Trazado 27" d="M43.949,209.238a16.736,16.736,0,0,0-8.442-4.095c-.332-.067-.984-.186-1.954-.346-2.393-.4-6-1.582-6.793-4.135a4.2,4.2,0,0,1-.16-1.25q.02-8.854,0-17.509a.07.07,0,0,1,.08-.08H61.272a.063.063,0,0,1,.066.066v17.815c0,.159,0,.306-.013.465-.066,1.25-1.343,2.473-2.366,3.058a12.236,12.236,0,0,1-3.935,1.436c-.984.173-1.981.372-2.991.572a15.952,15.952,0,0,0-7.99,3.988c-.027.053-.053.053-.093.013m-8.07-14.611c0,.133-.027.133-.053.013L32.263,183.7a.128.128,0,0,0-.133-.093H28.3a.063.063,0,0,0-.066.066v2.1a.136.136,0,0,0,.066.106l1.1.545a.118.118,0,0,1,.066.106v12.1a.1.1,0,0,1-.066.093l-1.064.412a.1.1,0,0,0-.066.093v1.821a.089.089,0,0,0,.066.093l5.105,1.29c.053.013.08-.013.08-.066v-2.114a.194.194,0,0,0-.093-.173l-1.024-.771a.233.233,0,0,1-.093-.186v-6.966a.013.013,0,0,1,.013-.013h.04c.027,0,.04.013.04.027a1.886,1.886,0,0,0,.066.292q1.735,5.105,3.55,10.489a.2.2,0,0,0,.133.12l2.446.718c.066.013.093,0,.093-.066V186.558a.255.255,0,0,1,.12-.213l.824-.479a.109.109,0,0,0,.053-.08v-2.14a.063.063,0,0,0-.066-.066H34.882a.063.063,0,0,0-.066.066v2.1a.118.118,0,0,0,.066.106l.944.532a.108.108,0,0,1,.053.106Zm9.067-3.191a.057.057,0,0,1-.053-.053v-5.052a.057.057,0,0,1,.053-.053h2.167c.027,0,.04.013.053.04l.572,1.755c.013.027.027.04.053.04h1.941a.057.057,0,0,0,.053-.053v-4.414a.057.057,0,0,0-.053-.053H40.8a.057.057,0,0,0-.053.053v2.194a.1.1,0,0,0,.027.053l1.077.518c.013.013.027.027.027.04v15.422a.069.069,0,0,1-.027.053l-1.064.425a.069.069,0,0,0-.027.053v1.848a.069.069,0,0,0,.027.053L45.9,206.22a.049.049,0,0,0,.066-.027v-2.167c0-.013,0-.027-.013-.027l-1.037-1.236a.041.041,0,0,1-.013-.027v-8.469a.057.057,0,0,1,.053-.053h1.662c.013,0,.04.013.04.027l.6.891c.013.013.027.027.04.027h1.316a.057.057,0,0,0,.053-.053v-4.547a.057.057,0,0,0-.053-.053H47.286c-.013,0-.04.013-.04.027l-.625.917c-.013.013-.027.027-.04.027H44.946Zm10.1,7.924a.065.065,0,0,1-.08-.04V186.465c0-.027.013-.04.04-.053l.957-.518c.027-.013.04-.027.04-.053v-2.167a.063.063,0,0,0-.066-.066H50.809a.063.063,0,0,0-.066.066v2.154c0,.027.013.053.04.053l1.064.545a.071.071,0,0,1,.04.053v13.733a.1.1,0,0,1-.027.053l-1.25,1.01a.069.069,0,0,0-.027.053v2.14a.063.063,0,0,0,.066.066h.013l9.04-2.406a.088.088,0,0,0,.053-.066v-5.6a.063.063,0,0,0-.066-.066H57.656c-.027,0-.066.027-.066.053l-.412,3.3a.057.057,0,0,1-.053.053Z" transform="translate(-23.064 -157.652)" fill="#fff"/>
      <path id="Trazado_28" data-name="Trazado 28" d="M46.544,206.159v-8.123a.121.121,0,0,0-.053-.106l-.944-.532a.136.136,0,0,1-.066-.106v-2.1a.063.063,0,0,1,.066-.066h4.759a.063.063,0,0,1,.066.066v2.14a.073.073,0,0,1-.053.08l-.824.479a.225.225,0,0,0-.12.213v17.177c0,.066-.027.093-.093.066l-2.446-.718a.233.233,0,0,1-.133-.12q-1.815-5.384-3.55-10.489a1.161,1.161,0,0,1-.066-.292c0-.027-.013-.027-.04-.027h-.04a.013.013,0,0,0-.013.013v6.966a.232.232,0,0,0,.093.186l1.024.771a.227.227,0,0,1,.093.173v2.114c0,.053-.027.08-.08.066l-5.118-1.329a.089.089,0,0,1-.066-.093v-1.821a.1.1,0,0,1,.066-.093l1.064-.412a.1.1,0,0,0,.066-.093v-12.1a.118.118,0,0,0-.066-.106l-1.1-.545a.136.136,0,0,1-.066-.106v-2.1a.063.063,0,0,1,.066-.066h3.816a.128.128,0,0,1,.133.093l3.563,10.941c.053.133.066.133.066,0" transform="translate(-33.728 -169.184)" fill="#f80303"/>
      <path id="Trazado_29" data-name="Trazado 29" d="M137.028,202.8h1.609c.013,0,.04-.013.04-.027l.625-.917c.013-.013.027-.027.04-.027h1.329a.057.057,0,0,1,.053.053v4.547a.057.057,0,0,1-.053.053h-1.316c-.013,0-.04-.013-.04-.027l-.6-.891c-.013-.013-.027-.027-.04-.027h-1.662a.057.057,0,0,0-.053.053v8.469c0,.013,0,.027.013.027l1.037,1.236a.041.041,0,0,1,.013.027V217.5a.057.057,0,0,1-.053.053h-.013l-5.118-1.914a.069.069,0,0,1-.027-.053v-1.848a.069.069,0,0,1,.027-.053l1.064-.425a.069.069,0,0,0,.027-.053V197.783c0-.013-.013-.04-.027-.04l-1.077-.518a.069.069,0,0,1-.027-.053v-2.194a.057.057,0,0,1,.053-.053h8.934a.057.057,0,0,1,.053.053v4.414a.057.057,0,0,1-.053.053h-1.941c-.027,0-.04-.013-.053-.04l-.572-1.755c-.013-.027-.027-.04-.053-.04H137a.057.057,0,0,0-.053.053v5.052q.04.08.08.08" transform="translate(-115.145 -169.011)" fill="#f80303"/>
      <path id="Trazado_30" data-name="Trazado 30" d="M211.467,210.979l2.074-.558a.1.1,0,0,0,.053-.053l.412-3.3a.061.061,0,0,1,.066-.053h2.034a.063.063,0,0,1,.066.066v5.6a.068.068,0,0,1-.053.066l-9.04,2.406a.065.065,0,0,1-.08-.04V212.96a.1.1,0,0,1,.027-.053l1.25-1.01a.069.069,0,0,0,.027-.053V198.1c0-.027-.013-.053-.04-.053L207.2,197.5a.071.071,0,0,1-.04-.053v-2.154a.063.063,0,0,1,.066-.066h5.118a.063.063,0,0,1,.067.066v2.167c0,.027-.013.04-.04.053l-.957.518c-.027.013-.04.027-.04.053v12.842a.063.063,0,0,0,.066.066c.013-.013.013-.013.027-.013" transform="translate(-179.48 -169.271)" fill="#f80303"/>
      <path id="Trazado_31" data-name="Trazado 31" d="M1291.622,236.454v3.736a.035.035,0,0,0,.04.04h5.039a.035.035,0,0,1,.04.04v1.21a.035.035,0,0,1-.04.04h-6.661a.035.035,0,0,1-.04-.04V230.365a.035.035,0,0,1,.04-.04h6.528a.035.035,0,0,1,.04.04v1.21a.035.035,0,0,1-.04.04h-4.906a.035.035,0,0,0-.04.04v3.4a.035.035,0,0,0,.04.04h4.533a.035.035,0,0,1,.04.04v1.21a.035.035,0,0,1-.04.04h-4.533a.123.123,0,0,0-.04.066" transform="translate(-1118.501 -199.704)" fill="#fff"/>
      <path id="Trazado_32" data-name="Trazado 32" d="M1370.327,239.053v-8.562a.063.063,0,0,1,.066-.066h1.4a.063.063,0,0,1,.066.066v11.074a.063.063,0,0,1-.066.066h-1.9a.139.139,0,0,1-.12-.066q-2.194-4.287-4.374-8.535c-.04-.093-.106-.106-.2-.067a.1.1,0,0,0-.066.093v8.522a.063.063,0,0,1-.066.066h-1.4a.063.063,0,0,1-.066-.066V230.5a.063.063,0,0,1,.066-.066h1.888a.135.135,0,0,1,.106.066c1.489,2.911,2.951,5.757,4.387,8.562a.152.152,0,0,0,.2.08c.053-.027.08-.053.08-.093" transform="translate(-1182.316 -199.791)" fill="#fff"/>
      <path id="Trazado_33" data-name="Trazado 33" d="M1711.864,237.275h-5.956a.605.605,0,0,1-.691-.665c-.014-.585-.014-1.21-.014-1.848,0-.372.08-.838.572-.838h10.21a.619.619,0,0,1,.678.7c.013.572.013,1.2.013,1.875a1.167,1.167,0,0,1-.2.691q-3.31,4.666-6.661,9.359a.033.033,0,0,0,.013.053.048.048,0,0,0,.027.013h6.394c.426,0,.652.226.665.691a21.4,21.4,0,0,1-.026,2.18.48.48,0,0,1-.545.479c-3.51,0-7.02.013-10.53,0-.492,0-.625-.332-.638-.8-.013-.612-.026-1.21-.013-1.795a1.176,1.176,0,0,1,.253-.745c2.22-3.151,4.387-6.248,6.528-9.293-.014-.04-.014-.066-.08-.066" transform="translate(-1478.466 -202.826)" fill="#fff"/>
      <path id="Trazado_34" data-name="Trazado 34" d="M1831.963,240.725c-.014-.013-.027-.027-.054-.013s-.013.013-.013.027q0,4.228-.013,8.282c0,.372-.066.824-.572.838-.718.027-1.448.027-2.207.027-.479-.013-.7-.239-.7-.7V234.543a.617.617,0,0,1,.691-.7h2.061a1.057,1.057,0,0,1,.97.612c1.436,2.739,2.938,5.6,4.48,8.562.04.093.067.08.067-.013v-8.562c0-.465.385-.612.784-.612.811,0,1.489,0,1.994.013.439.013.665.226.665.651v14.77a.607.607,0,0,1-.6.612c-.731.013-1.462,0-2.18,0-.652,0-.9-.505-1.17-1.024-1.383-2.739-2.792-5.451-4.2-8.123" transform="translate(-1585.323 -202.739)" fill="#fff"/>
    </g>
  </g>
  <g id="Grupo_16" data-name="Grupo 16" transform="translate(84.178 30.926)">
    <g id="Grupo_15" data-name="Grupo 15" clip-path="url(#clip-path-8)">
      <rect id="Rectángulo_8" data-name="Rectángulo 8" width="19.25" height="23.265" transform="translate(-0.024 0)" fill="url(#linear-gradient-6)"/>
    </g>
  </g>
  <g id="Grupo_18" data-name="Grupo 18" transform="translate(104.716 30.916)">
    <g id="Grupo_17" data-name="Grupo 17" clip-path="url(#clip-path-9)">
      <rect id="Rectángulo_9" data-name="Rectángulo 9" width="19.157" height="23.262" transform="translate(-0.008 0)" fill="url(#linear-gradient-7)"/>
    </g>
  </g>
  <g id="Grupo_20" data-name="Grupo 20" transform="translate(47.435 31.212)">
    <g id="Grupo_19" data-name="Grupo 19" clip-path="url(#clip-path-10)">
      <rect id="Rectángulo_10" data-name="Rectángulo 10" width="17.163" height="22.607" fill="url(#linear-gradient-8)"/>
    </g>
  </g>
  <g id="Grupo_22" data-name="Grupo 22" transform="translate(62.253 31.219)">
    <g id="Grupo_21" data-name="Grupo 21" clip-path="url(#clip-path-11)">
      <rect id="Rectángulo_11" data-name="Rectángulo 11" width="21.324" height="22.601" transform="translate(-0.008 0)" fill="url(#linear-gradient-9)"/>
    </g>
  </g>
</svg>
